<svg xmlns="http://www.w3.org/2000/svg" xmlns:xlink="http://www.w3.org/1999/xlink" width="2000" zoomAndPan="magnify" viewBox="0 0 1500 1499.999933" height="2000" preserveAspectRatio="xMidYMid meet" version="1.0"><defs><clipPath id="beaa3da314"><path d="M 85.125 893 L 1375 893 L 1375 1099 L 85.125 1099 Z M 85.125 893 " clip-rule="nonzero"/></clipPath><clipPath id="154a6632f0"><path d="M 85.125 1079 L 1375 1079 L 1375 1285.816406 L 85.125 1285.816406 Z M 85.125 1079 " clip-rule="nonzero"/></clipPath><clipPath id="ed76cef97a"><path d="M 1081 364 L 1414.875 364 L 1414.875 707 L 1081 707 Z M 1081 364 " clip-rule="nonzero"/></clipPath><clipPath id="c865b68909"><path d="M 1074.5 363.316406 L 1432.25 363.316406 L 1432.25 721.066406 L 1074.5 721.066406 Z M 1074.5 363.316406 " clip-rule="nonzero"/></clipPath></defs><path fill="#0e3983" d="M 1198.734375 823.734375 C 1154.746094 832.300781 1113.84375 837.695312 1074.484375 848.617188 C 1030.480469 860.800781 993.503906 886.960938 960.554688 918.570312 C 945.414062 933.089844 934.132812 933.519531 919.296875 919.40625 C 838.414062 842.457031 743.296875 814.804688 633.953125 836.445312 C 631.199219 836.648438 628.441406 836.660156 625.683594 836.484375 C 662.355469 810.648438 696.867188 786.160156 731.566406 761.945312 C 757.328125 743.96875 764.972656 722.125 753.285156 698.402344 C 742.28125 676.0625 720.757812 669.085938 690.523438 678.351562 C 550.503906 721.261719 410.5 764.203125 270.503906 807.175781 C 225.125 821.097656 180.21875 791.796875 178.207031 746.976562 C 178.152344 744.886719 178.183594 742.800781 178.300781 740.714844 C 178.417969 738.628906 178.621094 736.550781 178.910156 734.480469 C 179.195312 732.410156 179.570312 730.355469 180.027344 728.316406 C 180.484375 726.277344 181.023438 724.257812 181.648438 722.265625 C 182.273438 720.269531 182.976562 718.304688 183.761719 716.367188 C 184.546875 714.429688 185.410156 712.527344 186.355469 710.664062 C 187.296875 708.796875 188.3125 706.972656 189.40625 705.191406 C 190.5 703.410156 191.660156 701.675781 192.898438 699.992188 C 194.132812 698.304688 195.433594 696.675781 196.804688 695.09375 C 198.175781 693.515625 199.605469 691.996094 201.101562 690.535156 C 202.597656 689.078125 204.148438 687.679688 205.757812 686.347656 C 207.371094 685.015625 209.03125 683.75 210.746094 682.554688 C 212.460938 681.359375 214.21875 680.238281 216.027344 679.1875 C 217.832031 678.136719 219.679688 677.160156 221.566406 676.261719 C 223.453125 675.363281 225.375 674.542969 227.328125 673.804688 C 229.285156 673.0625 231.265625 672.40625 233.273438 671.828125 C 327.21875 642.414062 421.1875 613.074219 515.175781 583.808594 C 592.304688 559.675781 669.410156 535.476562 746.492188 511.203125 C 825.875 486.324219 895.796875 503.285156 954.367188 561.652344 C 1020.703125 627.765625 1085.902344 695.027344 1150.597656 762.742188 C 1168.800781 781.777344 1183.492188 804.1875 1198.734375 823.734375 Z M 1198.734375 823.734375 " fill-opacity="1" fill-rule="nonzero"/><g clip-path="url(#beaa3da314)"><path fill="#0e3983" d="M 328.679688 894.0625 C 334.457031 894.011719 340.226562 894.214844 345.984375 894.675781 C 351.742188 895.136719 357.472656 895.851562 363.167969 896.824219 C 368.863281 897.792969 374.503906 899.015625 380.089844 900.492188 C 385.675781 901.964844 391.1875 903.683594 396.617188 905.648438 C 402.050781 907.613281 407.386719 909.816406 412.625 912.257812 C 417.859375 914.699219 422.980469 917.367188 427.976562 920.261719 C 432.976562 923.160156 437.839844 926.273438 442.558594 929.601562 C 447.28125 932.929688 451.847656 936.464844 456.253906 940.199219 C 503.164062 979.191406 558.683594 979.121094 605.996094 940.300781 C 682.441406 877.582031 784.546875 877.789062 860.664062 940.808594 C 908.390625 980.339844 962.808594 980.304688 1009.921875 940.714844 C 1012.152344 938.820312 1014.425781 936.980469 1016.742188 935.191406 C 1019.054688 933.402344 1021.40625 931.664062 1023.800781 929.980469 C 1026.191406 928.296875 1028.621094 926.667969 1031.085938 925.09375 C 1033.550781 923.515625 1036.050781 922 1038.582031 920.535156 C 1041.117188 919.074219 1043.683594 917.667969 1046.277344 916.320312 C 1048.875 914.972656 1051.5 913.6875 1054.15625 912.457031 C 1056.808594 911.226562 1059.492188 910.058594 1062.199219 908.949219 C 1064.90625 907.839844 1067.636719 906.792969 1070.390625 905.808594 C 1073.144531 904.820312 1075.917969 903.898438 1078.714844 903.035156 C 1081.511719 902.175781 1084.324219 901.375 1087.15625 900.640625 C 1089.988281 899.90625 1092.835938 899.238281 1095.695312 898.628906 C 1098.558594 898.023438 1101.429688 897.480469 1104.316406 897.003906 C 1107.203125 896.523438 1110.097656 896.113281 1113.003906 895.765625 C 1115.910156 895.417969 1118.820312 895.136719 1121.738281 894.917969 C 1124.652344 894.703125 1127.574219 894.550781 1130.5 894.464844 C 1133.421875 894.378906 1136.347656 894.359375 1139.273438 894.40625 C 1142.199219 894.453125 1145.121094 894.5625 1148.039062 894.742188 C 1150.960938 894.917969 1153.875 895.160156 1156.785156 895.46875 C 1159.691406 895.777344 1162.59375 896.152344 1165.484375 896.589844 C 1168.378906 897.027344 1171.257812 897.53125 1174.128906 898.101562 C 1177 898.667969 1179.855469 899.300781 1182.695312 899.996094 C 1185.535156 900.695312 1188.359375 901.453125 1191.167969 902.277344 C 1193.972656 903.101562 1196.761719 903.988281 1199.527344 904.9375 C 1202.296875 905.882812 1205.039062 906.894531 1207.761719 907.96875 C 1210.484375 909.039062 1213.179688 910.171875 1215.851562 911.363281 C 1218.523438 912.558594 1221.164062 913.8125 1223.78125 915.125 C 1226.394531 916.433594 1228.976562 917.804688 1231.53125 919.234375 C 1234.085938 920.664062 1236.605469 922.148438 1239.089844 923.6875 C 1241.578125 925.230469 1244.027344 926.828125 1246.441406 928.476562 C 1248.855469 930.128906 1251.230469 931.835938 1253.570312 933.59375 C 1255.90625 935.351562 1258.207031 937.160156 1260.460938 939.023438 C 1262.71875 940.886719 1264.933594 942.796875 1267.101562 944.757812 C 1297.886719 972.367188 1327.648438 1001.121094 1357.765625 1029.460938 C 1377.140625 1047.683594 1379.941406 1067.757812 1365.644531 1083.835938 C 1364.695312 1084.878906 1363.695312 1085.871094 1362.648438 1086.8125 C 1361.597656 1087.753906 1360.503906 1088.644531 1359.367188 1089.476562 C 1358.230469 1090.308594 1357.054688 1091.082031 1355.839844 1091.800781 C 1354.625 1092.515625 1353.375 1093.167969 1352.09375 1093.761719 C 1350.816406 1094.351562 1349.507812 1094.875 1348.175781 1095.335938 C 1346.84375 1095.796875 1345.492188 1096.191406 1344.117188 1096.515625 C 1342.746094 1096.84375 1341.359375 1097.097656 1339.964844 1097.285156 C 1338.566406 1097.472656 1337.164062 1097.589844 1335.753906 1097.636719 C 1334.34375 1097.683594 1332.933594 1097.660156 1331.527344 1097.566406 C 1330.121094 1097.472656 1328.722656 1097.308594 1327.332031 1097.078125 C 1325.941406 1096.84375 1324.566406 1096.539062 1323.203125 1096.171875 C 1321.84375 1095.800781 1320.503906 1095.363281 1319.1875 1094.855469 C 1317.871094 1094.351562 1316.582031 1093.785156 1315.324219 1093.152344 C 1314.0625 1092.515625 1312.835938 1091.824219 1311.648438 1091.066406 C 1310.457031 1090.3125 1309.304688 1089.5 1308.195312 1088.628906 C 1307.085938 1087.757812 1306.023438 1086.832031 1305.007812 1085.855469 C 1276.183594 1059.710938 1248.121094 1032.707031 1219.972656 1005.820312 C 1170.269531 958.351562 1112.6875 955.867188 1059.433594 999.152344 C 984.214844 1060.277344 884.878906 1059.964844 809.691406 998.359375 C 759.558594 957.285156 705.558594 957.40625 655.617188 998.722656 C 653.480469 1000.519531 651.308594 1002.269531 649.09375 1003.972656 C 646.882812 1005.675781 644.632812 1007.332031 642.347656 1008.9375 C 640.066406 1010.542969 637.746094 1012.097656 635.394531 1013.605469 C 633.042969 1015.109375 630.660156 1016.5625 628.246094 1017.964844 C 625.832031 1019.367188 623.386719 1020.71875 620.914062 1022.015625 C 618.441406 1023.308594 615.941406 1024.550781 613.414062 1025.742188 C 610.886719 1026.929688 608.335938 1028.0625 605.761719 1029.140625 C 603.183594 1030.214844 600.585938 1031.238281 597.96875 1032.203125 C 595.347656 1033.167969 592.707031 1034.074219 590.046875 1034.925781 C 587.386719 1035.777344 584.710938 1036.570312 582.019531 1037.304688 C 579.324219 1038.039062 576.617188 1038.714844 573.894531 1039.332031 C 571.167969 1039.953125 568.433594 1040.511719 565.6875 1041.007812 C 562.941406 1041.507812 560.183594 1041.949219 557.417969 1042.328125 C 554.652344 1042.707031 551.878906 1043.027344 549.097656 1043.285156 C 546.316406 1043.546875 543.535156 1043.746094 540.746094 1043.882812 C 537.957031 1044.023438 535.164062 1044.101562 532.375 1044.121094 C 529.582031 1044.136719 526.789062 1044.097656 524 1043.992188 C 521.210938 1043.890625 518.421875 1043.726562 515.640625 1043.503906 C 512.855469 1043.28125 510.078125 1042.996094 507.308594 1042.652344 C 504.535156 1042.308594 501.773438 1041.90625 499.019531 1041.441406 C 496.269531 1040.980469 493.527344 1040.457031 490.792969 1039.875 C 488.0625 1039.292969 485.347656 1038.652344 482.644531 1037.953125 C 479.941406 1037.253906 477.253906 1036.496094 474.582031 1035.679688 C 471.914062 1034.863281 469.261719 1033.988281 466.628906 1033.058594 C 463.996094 1032.128906 461.386719 1031.140625 458.796875 1030.097656 C 456.207031 1029.050781 453.640625 1027.953125 451.097656 1026.796875 C 448.558594 1025.640625 446.042969 1024.433594 443.550781 1023.167969 C 441.0625 1021.90625 438.601562 1020.585938 436.167969 1019.214844 C 433.734375 1017.84375 431.332031 1016.421875 428.960938 1014.949219 C 426.589844 1013.472656 424.253906 1011.949219 421.949219 1010.371094 C 419.644531 1008.796875 417.375 1007.171875 415.140625 1005.496094 C 412.90625 1003.824219 410.707031 1002.101562 408.546875 1000.332031 C 353.011719 955.234375 297.214844 956.984375 244.945312 1005.359375 C 216.371094 1031.789062 188.441406 1059.011719 158.566406 1083.902344 C 155.875 1085.96875 153.046875 1087.828125 150.078125 1089.476562 C 147.113281 1091.128906 144.042969 1092.550781 140.867188 1093.746094 C 137.691406 1094.945312 134.445312 1095.902344 131.125 1096.621094 C 127.808594 1097.335938 124.457031 1097.808594 121.070312 1098.03125 C 105.835938 1099.054688 93.398438 1089.320312 87.929688 1073.945312 C 87.285156 1072.304688 86.777344 1070.621094 86.394531 1068.902344 C 86.015625 1067.179688 85.773438 1065.441406 85.664062 1063.679688 C 85.558594 1061.921875 85.589844 1060.164062 85.757812 1058.410156 C 85.925781 1056.65625 86.226562 1054.925781 86.667969 1053.21875 C 87.105469 1051.511719 87.675781 1049.847656 88.375 1048.230469 C 89.074219 1046.613281 89.894531 1045.058594 90.839844 1043.570312 C 91.78125 1042.078125 92.835938 1040.671875 94 1039.347656 C 95.160156 1038.023438 96.421875 1036.800781 97.777344 1035.671875 C 134.894531 1001.464844 171.199219 966.238281 210.03125 934.027344 C 243.734375 906.011719 284.578125 893.992188 328.679688 894.0625 Z M 328.679688 894.0625 " fill-opacity="1" fill-rule="nonzero"/></g><g clip-path="url(#154a6632f0)"><path fill="#0e3983" d="M 329.640625 1080.382812 C 335.265625 1080.359375 340.882812 1080.574219 346.492188 1081.035156 C 352.101562 1081.492188 357.679688 1082.191406 363.226562 1083.132812 C 368.773438 1084.074219 374.269531 1085.253906 379.71875 1086.667969 C 385.164062 1088.082031 390.539062 1089.730469 395.84375 1091.609375 C 401.144531 1093.488281 406.359375 1095.59375 411.480469 1097.921875 C 416.601562 1100.253906 421.617188 1102.796875 426.519531 1105.558594 C 431.421875 1108.324219 436.195312 1111.289062 440.839844 1114.464844 C 445.488281 1117.640625 449.988281 1121.007812 454.34375 1124.570312 C 506.175781 1166.574219 555.984375 1166.3125 608.023438 1124.570312 C 610.214844 1122.777344 612.441406 1121.03125 614.707031 1119.335938 C 616.972656 1117.640625 619.273438 1115.992188 621.609375 1114.394531 C 623.945312 1112.796875 626.316406 1111.25 628.71875 1109.753906 C 631.121094 1108.257812 633.554688 1106.8125 636.019531 1105.421875 C 638.484375 1104.03125 640.980469 1102.691406 643.5 1101.410156 C 646.023438 1100.125 648.574219 1098.894531 651.148438 1097.722656 C 653.722656 1096.546875 656.324219 1095.429688 658.945312 1094.367188 C 661.570312 1093.304688 664.214844 1092.300781 666.882812 1091.351562 C 669.550781 1090.402344 672.234375 1089.511719 674.941406 1088.679688 C 677.644531 1087.847656 680.367188 1087.074219 683.105469 1086.359375 C 685.84375 1085.644531 688.597656 1084.988281 691.363281 1084.390625 C 694.132812 1083.792969 696.910156 1083.257812 699.699219 1082.777344 C 702.488281 1082.300781 705.289062 1081.886719 708.097656 1081.527344 C 710.90625 1081.171875 713.71875 1080.875 716.539062 1080.640625 C 719.359375 1080.40625 722.183594 1080.230469 725.011719 1080.117188 C 727.839844 1080 730.671875 1079.949219 733.5 1079.957031 C 736.332031 1079.964844 739.160156 1080.035156 741.988281 1080.164062 C 744.816406 1080.292969 747.636719 1080.484375 750.457031 1080.734375 C 753.277344 1080.984375 756.089844 1081.296875 758.894531 1081.667969 C 761.703125 1082.042969 764.496094 1082.472656 767.285156 1082.96875 C 770.074219 1083.460938 772.847656 1084.011719 775.609375 1084.625 C 778.375 1085.238281 781.125 1085.910156 783.859375 1086.640625 C 786.59375 1087.371094 789.308594 1088.160156 792.011719 1089.007812 C 794.710938 1089.855469 797.390625 1090.761719 800.054688 1091.722656 C 802.714844 1092.6875 805.355469 1093.707031 807.972656 1094.78125 C 810.589844 1095.859375 813.183594 1096.992188 815.753906 1098.179688 C 818.320312 1099.367188 820.863281 1100.613281 823.378906 1101.910156 C 825.894531 1103.207031 828.378906 1104.558594 830.835938 1105.964844 C 833.296875 1107.367188 835.722656 1108.824219 838.117188 1110.335938 C 840.507812 1111.84375 842.871094 1113.40625 845.199219 1115.015625 C 847.523438 1116.625 849.816406 1118.289062 852.074219 1119.996094 C 854.328125 1121.707031 856.546875 1123.464844 858.726562 1125.269531 C 911.082031 1167.378906 959.917969 1167.253906 1012.027344 1124.890625 C 1014.3125 1123.03125 1016.640625 1121.226562 1019.007812 1119.476562 C 1021.371094 1117.722656 1023.777344 1116.023438 1026.21875 1114.378906 C 1028.660156 1112.734375 1031.140625 1111.144531 1033.652344 1109.613281 C 1036.167969 1108.078125 1038.714844 1106.601562 1041.292969 1105.183594 C 1043.875 1103.761719 1046.484375 1102.402344 1049.125 1101.101562 C 1051.765625 1099.796875 1054.433594 1098.554688 1057.132812 1097.371094 C 1059.828125 1096.1875 1062.550781 1095.066406 1065.296875 1094.007812 C 1068.042969 1092.945312 1070.8125 1091.945312 1073.605469 1091.011719 C 1076.394531 1090.074219 1079.207031 1089.199219 1082.039062 1088.390625 C 1084.867188 1087.578125 1087.714844 1086.832031 1090.582031 1086.148438 C 1093.445312 1085.464844 1096.324219 1084.847656 1099.214844 1084.292969 C 1102.105469 1083.738281 1105.011719 1083.25 1107.925781 1082.824219 C 1110.839844 1082.402344 1113.761719 1082.042969 1116.691406 1081.75 C 1119.621094 1081.457031 1122.554688 1081.230469 1125.496094 1081.070312 C 1128.433594 1080.90625 1131.378906 1080.8125 1134.320312 1080.78125 C 1137.265625 1080.753906 1140.210938 1080.789062 1143.152344 1080.890625 C 1146.097656 1080.996094 1149.035156 1081.164062 1151.96875 1081.398438 C 1154.90625 1081.632812 1157.835938 1081.929688 1160.753906 1082.296875 C 1163.675781 1082.664062 1166.589844 1083.09375 1169.492188 1083.589844 C 1172.394531 1084.085938 1175.285156 1084.644531 1178.164062 1085.273438 C 1181.039062 1085.898438 1183.902344 1086.585938 1186.75 1087.339844 C 1189.59375 1088.09375 1192.421875 1088.910156 1195.234375 1089.792969 C 1198.042969 1090.671875 1200.832031 1091.617188 1203.597656 1092.621094 C 1206.367188 1093.628906 1209.109375 1094.695312 1211.828125 1095.824219 C 1214.550781 1096.953125 1217.242188 1098.140625 1219.910156 1099.390625 C 1222.574219 1100.640625 1225.210938 1101.949219 1227.820312 1103.316406 C 1230.429688 1104.683594 1233.003906 1106.109375 1235.546875 1107.589844 C 1238.089844 1109.074219 1240.601562 1110.613281 1243.074219 1112.207031 C 1245.550781 1113.804688 1247.988281 1115.453125 1250.390625 1117.160156 C 1252.789062 1118.863281 1255.152344 1120.621094 1257.472656 1122.433594 C 1259.796875 1124.242188 1262.078125 1126.105469 1264.316406 1128.015625 C 1266.554688 1129.929688 1268.75 1131.890625 1270.898438 1133.902344 C 1300.296875 1161.269531 1329.378906 1188.914062 1358.535156 1216.507812 C 1377.414062 1234.378906 1379.714844 1254.785156 1364.847656 1270.929688 C 1363.910156 1271.933594 1362.921875 1272.886719 1361.890625 1273.789062 C 1360.855469 1274.691406 1359.78125 1275.542969 1358.664062 1276.339844 C 1357.550781 1277.140625 1356.394531 1277.878906 1355.207031 1278.566406 C 1354.015625 1279.25 1352.796875 1279.875 1351.542969 1280.4375 C 1350.292969 1281 1349.015625 1281.503906 1347.71875 1281.941406 C 1346.417969 1282.378906 1345.097656 1282.753906 1343.761719 1283.058594 C 1342.421875 1283.367188 1341.074219 1283.609375 1339.710938 1283.785156 C 1338.351562 1283.960938 1336.984375 1284.070312 1335.613281 1284.109375 C 1334.242188 1284.148438 1332.871094 1284.125 1331.5 1284.027344 C 1330.132812 1283.933594 1328.769531 1283.773438 1327.417969 1283.542969 C 1326.0625 1283.316406 1324.726562 1283.019531 1323.402344 1282.660156 C 1322.078125 1282.300781 1320.773438 1281.875 1319.492188 1281.386719 C 1318.207031 1280.898438 1316.953125 1280.347656 1315.726562 1279.734375 C 1314.496094 1279.121094 1313.300781 1278.449219 1312.140625 1277.71875 C 1310.976562 1276.988281 1309.855469 1276.203125 1308.769531 1275.363281 C 1307.6875 1274.519531 1306.644531 1273.628906 1305.648438 1272.683594 C 1275.589844 1245.167969 1247.460938 1215.433594 1216.292969 1189.316406 C 1208.042969 1182.269531 1199.167969 1176.125 1189.667969 1170.882812 C 1180.171875 1165.636719 1170.242188 1161.402344 1159.886719 1158.175781 C 1122.066406 1147.257812 1088.957031 1160.773438 1058.722656 1185.5 C 998.148438 1235.070312 930.128906 1242.867188 858.324219 1214.542969 C 839.941406 1206.328125 823.066406 1195.714844 807.699219 1182.707031 C 758.734375 1144.496094 706.171875 1144.171875 657.796875 1183.132812 C 580.792969 1245.179688 484.222656 1245.828125 406.179688 1184.808594 C 351.058594 1141.714844 297.089844 1143.726562 245.371094 1190.992188 C 216.183594 1217.65625 187.117188 1244.464844 158.171875 1271.410156 C 144.503906 1284.15625 129.078125 1288.890625 111.222656 1282.800781 C 85.222656 1273.925781 76.347656 1242.941406 96.054688 1224.0625 C 133.808594 1187.902344 172.046875 1152.082031 212.167969 1118.617188 C 245.539062 1090.738281 286.398438 1080.601562 329.640625 1080.382812 Z M 329.640625 1080.382812 " fill-opacity="1" fill-rule="nonzero"/></g><g clip-path="url(#ed76cef97a)"><path fill="#0e3983" d="M 1081.738281 534.902344 C 1081.984375 440.636719 1156.148438 364.519531 1247.953125 364.324219 C 1340.660156 364.125 1415.328125 440.628906 1415.199219 535.738281 C 1415.070312 630.5 1339.007812 707.8125 1247.097656 706.578125 C 1154.953125 705.335938 1081.496094 629.082031 1081.738281 534.902344 Z M 1081.738281 534.902344 " fill-opacity="1" fill-rule="nonzero"/></g><g clip-path="url(#c865b68909)"><path fill="#0e3983" d="M 1432.25 542.191406 C 1432.25 545.121094 1432.175781 548.046875 1432.03125 550.96875 C 1431.890625 553.894531 1431.675781 556.8125 1431.386719 559.726562 C 1431.101562 562.636719 1430.742188 565.542969 1430.3125 568.4375 C 1429.882812 571.335938 1429.382812 574.21875 1428.8125 577.089844 C 1428.242188 579.960938 1427.597656 582.816406 1426.886719 585.65625 C 1426.175781 588.496094 1425.394531 591.316406 1424.546875 594.117188 C 1423.695312 596.917969 1422.777344 599.695312 1421.792969 602.453125 C 1420.804688 605.210938 1419.753906 607.941406 1418.632812 610.644531 C 1417.511719 613.347656 1416.328125 616.023438 1415.074219 618.671875 C 1413.824219 621.316406 1412.507812 623.929688 1411.128906 626.511719 C 1409.746094 629.09375 1408.304688 631.640625 1406.800781 634.152344 C 1405.292969 636.664062 1403.730469 639.136719 1402.101562 641.570312 C 1400.476562 644.003906 1398.792969 646.394531 1397.046875 648.746094 C 1395.304688 651.097656 1393.503906 653.40625 1391.644531 655.667969 C 1389.789062 657.933594 1387.878906 660.148438 1385.910156 662.316406 C 1383.945312 664.484375 1381.925781 666.605469 1379.855469 668.675781 C 1377.789062 670.746094 1375.667969 672.761719 1373.5 674.730469 C 1371.328125 676.695312 1369.113281 678.605469 1366.851562 680.464844 C 1364.585938 682.320312 1362.28125 684.121094 1359.929688 685.867188 C 1357.578125 687.609375 1355.183594 689.292969 1352.75 690.921875 C 1350.316406 692.546875 1347.84375 694.113281 1345.332031 695.617188 C 1342.824219 697.125 1340.277344 698.566406 1337.695312 699.945312 C 1335.113281 701.324219 1332.5 702.640625 1329.851562 703.894531 C 1327.207031 705.144531 1324.53125 706.332031 1321.824219 707.449219 C 1319.121094 708.570312 1316.390625 709.625 1313.632812 710.609375 C 1310.878906 711.597656 1308.097656 712.515625 1305.296875 713.363281 C 1302.496094 714.214844 1299.675781 714.996094 1296.835938 715.707031 C 1293.996094 716.417969 1291.140625 717.058594 1288.269531 717.628906 C 1285.398438 718.199219 1282.515625 718.703125 1279.621094 719.132812 C 1276.722656 719.558594 1273.820312 719.917969 1270.90625 720.207031 C 1267.992188 720.492188 1265.074219 720.707031 1262.152344 720.851562 C 1259.226562 720.996094 1256.300781 721.066406 1253.375 721.066406 C 1250.445312 721.066406 1247.519531 720.996094 1244.597656 720.851562 C 1241.671875 720.707031 1238.753906 720.492188 1235.839844 720.207031 C 1232.925781 719.917969 1230.023438 719.558594 1227.128906 719.132812 C 1224.230469 718.703125 1221.347656 718.199219 1218.476562 717.628906 C 1215.605469 717.058594 1212.75 716.417969 1209.910156 715.707031 C 1207.070312 714.996094 1204.25 714.214844 1201.449219 713.363281 C 1198.648438 712.515625 1195.867188 711.597656 1193.113281 710.609375 C 1190.355469 709.625 1187.625 708.570312 1184.921875 707.449219 C 1182.214844 706.332031 1179.539062 705.144531 1176.894531 703.894531 C 1174.25 702.640625 1171.632812 701.324219 1169.050781 699.945312 C 1166.46875 698.566406 1163.925781 697.125 1161.414062 695.617188 C 1158.902344 694.113281 1156.429688 692.546875 1153.996094 690.921875 C 1151.5625 689.292969 1149.167969 687.609375 1146.816406 685.867188 C 1144.464844 684.121094 1142.160156 682.320312 1139.894531 680.464844 C 1137.632812 678.605469 1135.417969 676.695312 1133.25 674.730469 C 1131.078125 672.761719 1128.960938 670.746094 1126.890625 668.675781 C 1124.820312 666.605469 1122.800781 664.484375 1120.835938 662.316406 C 1118.871094 660.148438 1116.957031 657.933594 1115.101562 655.667969 C 1113.246094 653.40625 1111.445312 651.097656 1109.699219 648.746094 C 1107.957031 646.394531 1106.269531 644.003906 1104.644531 641.570312 C 1103.019531 639.136719 1101.453125 636.664062 1099.949219 634.152344 C 1098.441406 631.640625 1097 629.09375 1095.621094 626.511719 C 1094.238281 623.929688 1092.925781 621.316406 1091.671875 618.671875 C 1090.421875 616.023438 1089.234375 613.347656 1088.113281 610.644531 C 1086.996094 607.941406 1085.941406 605.210938 1084.953125 602.453125 C 1083.96875 599.695312 1083.050781 596.917969 1082.199219 594.117188 C 1081.351562 591.316406 1080.570312 588.496094 1079.859375 585.65625 C 1079.148438 582.816406 1078.507812 579.960938 1077.9375 577.089844 C 1077.363281 574.21875 1076.863281 571.335938 1076.433594 568.4375 C 1076.003906 565.542969 1075.648438 562.636719 1075.359375 559.726562 C 1075.074219 556.8125 1074.859375 553.894531 1074.714844 550.96875 C 1074.570312 548.046875 1074.5 545.121094 1074.5 542.191406 C 1074.5 539.265625 1074.570312 536.339844 1074.714844 533.414062 C 1074.859375 530.492188 1075.074219 527.574219 1075.359375 524.660156 C 1075.648438 521.746094 1076.003906 518.839844 1076.433594 515.945312 C 1076.863281 513.050781 1077.363281 510.167969 1077.9375 507.296875 C 1078.507812 504.425781 1079.148438 501.570312 1079.859375 498.730469 C 1080.570312 495.890625 1081.351562 493.070312 1082.199219 490.265625 C 1083.050781 487.464844 1083.96875 484.6875 1084.953125 481.929688 C 1085.941406 479.175781 1086.996094 476.445312 1088.113281 473.738281 C 1089.234375 471.035156 1090.421875 468.359375 1091.671875 465.714844 C 1092.925781 463.066406 1094.238281 460.453125 1095.621094 457.871094 C 1097 455.289062 1098.441406 452.742188 1099.949219 450.230469 C 1101.453125 447.722656 1103.019531 445.25 1104.644531 442.8125 C 1106.269531 440.378906 1107.957031 437.988281 1109.699219 435.636719 C 1111.445312 433.285156 1113.246094 430.976562 1115.101562 428.714844 C 1116.957031 426.453125 1118.871094 424.234375 1120.835938 422.066406 C 1122.800781 419.898438 1124.820312 417.777344 1126.890625 415.707031 C 1128.960938 413.636719 1131.078125 411.621094 1133.25 409.65625 C 1135.417969 407.6875 1137.632812 405.777344 1139.894531 403.917969 C 1142.160156 402.0625 1144.464844 400.261719 1146.816406 398.519531 C 1149.167969 396.773438 1151.5625 395.089844 1153.996094 393.460938 C 1156.429688 391.835938 1158.902344 390.269531 1161.414062 388.765625 C 1163.925781 387.261719 1166.46875 385.816406 1169.050781 384.4375 C 1171.632812 383.058594 1174.25 381.742188 1176.894531 380.492188 C 1179.539062 379.238281 1182.214844 378.054688 1184.921875 376.933594 C 1187.625 375.8125 1190.355469 374.757812 1193.113281 373.773438 C 1195.867188 372.785156 1198.648438 371.867188 1201.449219 371.019531 C 1204.25 370.167969 1207.070312 369.390625 1209.910156 368.675781 C 1212.75 367.964844 1215.605469 367.324219 1218.476562 366.753906 C 1221.347656 366.183594 1224.230469 365.683594 1227.128906 365.253906 C 1230.023438 364.824219 1232.925781 364.464844 1235.839844 364.179688 C 1238.753906 363.890625 1241.671875 363.675781 1244.597656 363.53125 C 1247.519531 363.390625 1250.445312 363.316406 1253.375 363.316406 C 1256.300781 363.316406 1259.226562 363.390625 1262.152344 363.53125 C 1265.074219 363.675781 1267.992188 363.890625 1270.90625 364.179688 C 1273.820312 364.464844 1276.722656 364.824219 1279.621094 365.253906 C 1282.515625 365.683594 1285.398438 366.183594 1288.269531 366.753906 C 1291.140625 367.324219 1293.996094 367.964844 1296.835938 368.675781 C 1299.675781 369.390625 1302.496094 370.167969 1305.296875 371.019531 C 1308.097656 371.867188 1310.878906 372.785156 1313.632812 373.773438 C 1316.390625 374.757812 1319.121094 375.8125 1321.824219 376.933594 C 1324.53125 378.054688 1327.207031 379.238281 1329.851562 380.492188 C 1332.5 381.742188 1335.113281 383.058594 1337.695312 384.4375 C 1340.277344 385.816406 1342.824219 387.261719 1345.332031 388.765625 C 1347.84375 390.269531 1350.316406 391.835938 1352.75 393.460938 C 1355.183594 395.089844 1357.578125 396.773438 1359.929688 398.519531 C 1362.28125 400.261719 1364.585938 402.0625 1366.851562 403.917969 C 1369.113281 405.777344 1371.328125 407.6875 1373.5 409.65625 C 1375.667969 411.621094 1377.789062 413.636719 1379.855469 415.707031 C 1381.925781 417.777344 1383.945312 419.898438 1385.910156 422.066406 C 1387.878906 424.234375 1389.789062 426.453125 1391.644531 428.714844 C 1393.503906 430.976562 1395.304688 433.285156 1397.046875 435.636719 C 1398.792969 437.988281 1400.476562 440.378906 1402.101562 442.8125 C 1403.730469 445.25 1405.292969 447.722656 1406.800781 450.230469 C 1408.304688 452.742188 1409.746094 455.289062 1411.128906 457.871094 C 1412.507812 460.453125 1413.824219 463.066406 1415.074219 465.714844 C 1416.328125 468.359375 1417.511719 471.035156 1418.632812 473.738281 C 1419.753906 476.445312 1420.804688 479.175781 1421.792969 481.929688 C 1422.777344 484.6875 1423.695312 487.464844 1424.546875 490.265625 C 1425.394531 493.070312 1426.175781 495.890625 1426.886719 498.730469 C 1427.597656 501.570312 1428.242188 504.425781 1428.8125 507.296875 C 1429.382812 510.167969 1429.882812 513.050781 1430.3125 515.945312 C 1430.742188 518.839844 1431.101562 521.746094 1431.386719 524.660156 C 1431.675781 527.574219 1431.890625 530.492188 1432.03125 533.414062 C 1432.175781 536.339844 1432.25 539.265625 1432.25 542.191406 Z M 1432.25 542.191406 " fill-opacity="1" fill-rule="nonzero"/></g></svg>